<svg width="400" height="400" viewBox="0 0 400 400" fill="none" xmlns="http://www.w3.org/2000/svg">
<rect width="400" height="400" rx="200" fill="#484283"/>
<path d="M204.132 228.1V189.1H310.332C311.332 205.9 309.632 221.6 305.232 236.2C300.832 250.8 294.032 263.7 284.832 274.9C275.632 286.1 264.132 294.9 250.332 301.3C236.532 307.5 220.732 310.6 202.932 310.6C186.132 310.6 170.732 308 156.732 302.8C142.732 297.4 130.632 289.8 120.432 280C110.232 270 102.232 258.2 96.432 244.6C90.832 230.8 88.032 215.6 88.032 199C88.032 182.4 90.932 167.4 96.732 154C102.532 140.4 110.732 128.8 121.332 119.2C131.932 109.6 144.332 102.2 158.532 97C172.732 91.8 188.132 89.2 204.732 89.2C219.532 89.2 232.832 91.3 244.632 95.5C256.432 99.7 266.832 105.6 275.832 113.2C285.032 120.6 292.932 129.2 299.532 139L254.532 162.4C249.732 154 243.232 147.1 235.032 141.7C227.032 136.1 216.932 133.3 204.732 133.3C193.132 133.3 182.432 135.9 172.632 141.1C163.032 146.3 155.332 153.8 149.532 163.6C143.932 173.2 141.132 185 141.132 199C141.132 212.8 143.832 224.8 149.232 235C154.832 245 162.332 252.8 171.732 258.4C181.332 263.8 192.332 266.5 204.732 266.5C212.332 266.5 219.232 265.6 225.432 263.8C231.632 261.8 236.932 259.1 241.332 255.7C245.732 252.1 249.432 248 252.432 243.4C255.632 238.6 258.132 233.5 259.932 228.1H204.132Z" fill="white"/>
</svg>
